<svg viewBox="0 0 24 24" fill="none" xmlns="http://www.w3.org/2000/svg" height="28">
    <path
            fill-rule="evenodd"
            clip-rule="evenodd"
            d="M11.9865 24C11.1502 24 10.5829 23.6634 10.1687 23.4177C9.89435 23.2549 9.73175 23.1628 9.58057 23.1628C9.37151 23.1628 9.21724 23.2092 9.00371 23.2735C7.63018 23.7593 6.67491 23.1294 5.87737 22.2601C5.6554 22.0332 5.4038 21.7759 5.24815 21.7245C3.98717 21.3495 2.66479 20.5033 2.70143 18.9767C2.7014 18.9767 2.7014 16.1621 2.7014 16.1621L0.942203 14.9969C0.53754 14.7293 0.246718 14.3527 0.101701 13.9081C-0.172971 13.1009 0.124435 12.1267 0.804389 11.6062C1.38691 11.1411 1.98521 11.1488 2.7014 11.1627C2.6772 9.29636 2.631 7.35302 3.43149 5.62438C4.82317 2.27185 8.3246 0 11.9865 0C15.6347 0 19.1502 2.27185 20.5417 5.62438C21.3418 7.35246 21.2963 9.29948 21.2717 11.1627C21.9961 11.1502 22.6059 11.1341 23.1956 11.6062C23.8755 12.1267 24.173 13.1009 23.8983 13.9081C23.7533 14.3527 23.4625 14.7293 23.0572 14.9973L21.2717 16.182V18.9767C21.263 20.5045 20.1574 21.3866 18.6628 21.7424C18.5454 21.7746 18.2575 22.0718 18.0855 22.2494C17.276 23.1383 16.3418 23.7558 14.9568 23.2735C14.7463 23.2117 14.58 23.1628 14.3801 23.1628C14.2301 23.1628 14.0699 23.2543 13.7997 23.4161C13.3882 23.6625 12.8246 24 11.9865 24Z"
            fill="#3A3837"
    />
    <path
            fill-rule="evenodd"
            clip-rule="evenodd"
            d="M21.8868 12H20.4278V9.20938C20.4278 4.58558 16.6486 0.83728 11.9867 0.83728C7.32484 0.83728 3.54564 4.58558 3.54564 9.20938V12H2.11348C0.860715 12 0.368772 13.6115 1.41113 14.3007L3.54564 15.7146V18.9768C3.54564 20.0931 4.44751 20.5773 5.51522 20.9303C6.35932 21.2094 6.92206 22.6047 8.04753 22.6047C8.61027 22.6047 8.93443 22.3257 9.5807 22.3257C10.4248 22.3257 10.8612 23.1629 11.9867 23.1629C13.1122 23.1629 13.5351 22.3257 14.3802 22.3257C15.0078 22.3257 15.3631 22.6047 15.9259 22.6047C17.0513 22.6047 17.6393 21.1334 18.4582 20.9303C19.5836 20.6513 20.4278 20.0931 20.4278 18.9768V15.7348L22.5891 14.3007C23.6315 13.6115 23.1395 12 21.8868 12Z"
            fill="white"
    />
    <path
            fill-rule="evenodd"
            clip-rule="evenodd"
            d="M11.2966 8.5116C11.2966 9.66754 10.6667 10.6046 9.88975 10.6046C9.11278 10.6046 8.48291 9.66754 8.48291 8.5116C8.48291 7.35567 9.11278 6.41858 9.88975 6.41858C10.6667 6.41858 11.2966 7.35567 11.2966 8.5116Z"
            fill="#3A3837"
    />
    <path
            fill-rule="evenodd"
            clip-rule="evenodd"
            d="M15.5173 8.5116C15.5173 9.66754 14.8874 10.6046 14.1105 10.6046C13.3335 10.6046 12.7036 9.66754 12.7036 8.5116C12.7036 7.35567 13.3335 6.41858 14.1105 6.41858C14.8874 6.41858 15.5173 7.35567 15.5173 8.5116Z"
            fill="#3A3837"
    />
</svg>
